<svg width="300" height="45" viewBox="0 0 300 45" fill="none" xmlns="http://www.w3.org/2000/svg">
<rect width="300" height="45" rx="5" fill="black"/>
<path d="M23.9697 17.0664C24.292 17.0664 24.8184 16.9411 25.5488 16.6904C26.2793 16.4398 26.9131 16.3145 27.4502 16.3145C28.3311 16.3145 29.1152 16.5508 29.8027 17.0234C30.1895 17.2956 30.5726 17.6644 30.9521 18.1299C30.3792 18.6169 29.9603 19.0501 29.6953 19.4297C29.2155 20.1172 28.9756 20.8763 28.9756 21.707C28.9756 22.6165 29.2298 23.4365 29.7383 24.167C30.2467 24.8975 30.8268 25.3594 31.4785 25.5527C31.2064 26.4336 30.7552 27.3538 30.125 28.3135C29.1725 29.7529 28.2272 30.4727 27.2891 30.4727C26.9167 30.4727 26.401 30.3545 25.7422 30.1182C25.0905 29.8818 24.5391 29.7637 24.0879 29.7637C23.6367 29.7637 23.1104 29.8854 22.5088 30.1289C21.9144 30.3796 21.431 30.5049 21.0586 30.5049C19.9342 30.5049 18.8314 29.5524 17.75 27.6475C16.6686 25.764 16.1279 23.9163 16.1279 22.1045C16.1279 20.4215 16.5397 19.0501 17.3633 17.9902C18.194 16.9303 19.2396 16.4004 20.5 16.4004C21.0371 16.4004 21.6852 16.5114 22.4443 16.7334C23.2106 16.9554 23.7191 17.0664 23.9697 17.0664ZM27.332 12.6299C27.332 13.0882 27.2246 13.5895 27.0098 14.1338C26.7949 14.6781 26.4548 15.1829 25.9893 15.6484C25.5882 16.0423 25.1908 16.3073 24.7969 16.4434C24.5462 16.5221 24.1667 16.583 23.6582 16.626C23.6725 15.5374 23.9554 14.5957 24.5068 13.8008C25.0654 13.0059 25.9857 12.4616 27.2676 12.168C27.2962 12.2611 27.3141 12.3434 27.3213 12.415C27.3285 12.4867 27.332 12.5583 27.332 12.6299Z" fill="white"/>
<path d="M106.53 26.37L110.22 16.305H111.375L115.05 26.37H113.805L112.74 23.43H108.705L107.67 26.37H106.53ZM110.7 17.895L109.05 22.425H112.365L110.73 17.895H110.7ZM116.014 28.59V18.945H117.124V19.545H117.184C117.649 19.125 118.429 18.795 119.389 18.795C121.024 18.795 122.434 19.695 122.434 22.455V22.65C122.434 25.365 121.129 26.505 119.074 26.505C118.219 26.505 117.589 26.25 117.169 26.01V28.59H116.014ZM118.969 25.56C120.379 25.56 121.234 24.81 121.234 22.815V22.515C121.234 20.415 120.454 19.77 119.089 19.77C118.219 19.77 117.514 20.07 117.169 20.31V25.035C117.514 25.32 118.189 25.56 118.969 25.56ZM123.78 28.59V18.945H124.89V19.545H124.95C125.415 19.125 126.195 18.795 127.155 18.795C128.79 18.795 130.2 19.695 130.2 22.455V22.65C130.2 25.365 128.895 26.505 126.84 26.505C125.985 26.505 125.355 26.25 124.935 26.01V28.59H123.78ZM126.735 25.56C128.145 25.56 129 24.81 129 22.815V22.515C129 20.415 128.22 19.77 126.855 19.77C125.985 19.77 125.28 20.07 124.935 20.31V25.035C125.28 25.32 125.955 25.56 126.735 25.56ZM131.575 26.37V15.63H132.73V26.37H131.575ZM137.596 26.505C135.256 26.505 134.071 25.08 134.071 22.755V22.545C134.071 19.95 135.601 18.795 137.311 18.795C139.351 18.795 140.311 19.98 140.311 22.29V22.935H135.241C135.301 24.795 136.186 25.515 137.776 25.515C138.766 25.515 139.426 25.275 140.101 24.96V25.815C139.651 26.13 138.796 26.505 137.596 26.505ZM137.281 19.725C136.351 19.725 135.361 20.265 135.241 22.02H139.111C139.111 20.4 138.496 19.725 137.281 19.725ZM152.938 26.385H141.103V25.425H146.428V23.19H142.558V19.095H150.328V16.995H142.543V16.035H151.468V20.04H143.698V22.23H151.843V23.19H147.568V25.425H152.938V26.385ZM169.041 26.385H157.206V25.425H162.531V23.19H158.661V19.095H166.431V16.995H158.646V16.035H167.571V20.04H159.801V22.23H167.946V23.19H163.671V25.425H169.041V26.385ZM181.611 26.115H169.776V25.155H181.611V26.115ZM179.916 16.41C179.916 19.425 179.736 22.155 179.331 24.165L178.191 24.015C178.551 22.35 178.746 19.5 178.746 17.355H171.006V16.41H179.916ZM193.057 24.51H191.917V14.94H193.057V24.51ZM193.387 27.615H184.507V23.565H185.647V26.67H193.387V27.615ZM186.157 15.81C188.152 15.81 189.697 17.13 189.697 19.08C189.697 21.03 188.167 22.335 186.172 22.335C184.177 22.335 182.632 21.045 182.632 19.095C182.632 17.145 184.177 15.81 186.157 15.81ZM186.157 16.8C184.777 16.8 183.727 17.745 183.727 19.08C183.727 20.4 184.792 21.33 186.172 21.33C187.612 21.33 188.617 20.4 188.617 19.095C188.617 17.745 187.612 16.8 186.157 16.8Z" fill="white"/>
</svg>
