<svg width="223" height="50" viewBox="0 0 223 50" fill="none" xmlns="http://www.w3.org/2000/svg">
<path d="M14.4515 13.144L14.6275 14.488C13.0595 14.776 10.8195 14.92 8.2435 14.936L6.4835 14.952V9.192H11.3155V6.568H6.4195V5.256H12.9475V10.504H8.1155V13.592C9.8115 13.592 12.6115 13.496 14.4515 13.144ZM17.3955 18.264H15.7635V4.008H17.3955V18.264ZM30.7593 10.44H21.1432V4.552H22.7753V6.232H29.1273V4.52H30.7593V10.44ZM24.2793 18.28H22.6473V13.432H19.5113V12.104H32.3913V13.432H29.1913V18.28H27.5593V13.432H24.2793V18.28ZM29.1273 9.112V7.544H22.7753V9.112H29.1273ZM46.235 12.44H33.355V11.112H46.235V12.44ZM44.651 9.368H35.099V4.472H36.747V8.056H44.651V9.368ZM44.747 17.88H35.019V13.688H36.667V16.568H44.747V17.88ZM63.0339 12.76H58.6339V15.144H64.2819V16.456H51.4019V15.144H57.0019V12.76H53.0499V8.152H60.9859V6.312H53.0019V5H62.6179V9.48H54.6979V11.432H63.0339V12.76ZM78.1256 16.184H65.2456V14.856H78.1256V16.184ZM76.4456 5.544C76.4456 9.32 76.2056 11.992 75.8216 13.864L74.2056 13.656C74.5576 12.232 74.7976 9.144 74.7976 6.84H66.7336V5.544H76.4456ZM90.8174 14.344H89.1854V4.008H90.8174V14.344ZM91.1534 17.848H81.3934V13.368H83.0254V16.536H91.1534V17.848ZM86.8174 8.552C86.8174 10.584 85.3454 12.04 83.1694 12.04C80.9934 12.04 79.4894 10.584 79.4894 8.568C79.4894 6.536 80.9774 5.064 83.1694 5.064C85.3454 5.064 86.8174 6.52 86.8174 8.552ZM85.1854 8.552C85.1854 7.304 84.4174 6.424 83.1694 6.424C81.9534 6.424 81.1374 7.336 81.1374 8.552C81.1374 9.72 81.9534 10.648 83.1694 10.648C84.4174 10.648 85.1854 9.72 85.1854 8.552ZM108.064 10.28C108.064 11.608 106.304 12.52 103.6 12.52C100.88 12.52 99.1523 11.608 99.1523 10.28C99.1523 8.904 100.88 8.008 103.6 8.008C106.304 8.008 108.064 8.904 108.064 10.28ZM104.368 18.264H102.736V14.568H97.1363V13.256H110.016V14.568H104.368V18.264ZM109.28 7.48H97.9043V6.216H109.28V7.48ZM106.368 10.28C106.368 9.592 105.056 9.288 103.6 9.288C102.144 9.288 100.832 9.592 100.832 10.28C100.832 10.92 102.144 11.24 103.6 11.24C105.056 11.24 106.368 10.92 106.368 10.28ZM101.088 5.416V4.104H106.064V5.416H101.088ZM123.887 11.912L124.031 13.144C121.327 13.512 118.127 13.64 115.055 13.672L114.815 12.328C115.871 12.328 117.295 12.328 118.559 12.296V11.528C117.087 11.336 116.047 10.648 116.047 9.608C116.047 8.36 117.471 7.608 119.359 7.608C121.263 7.608 122.687 8.36 122.687 9.608C122.687 10.648 121.647 11.336 120.191 11.528V12.216C121.503 12.152 123.055 12.04 123.887 11.912ZM126.367 4.008V8.392H128.415V9.768H126.367V13.528H124.735V4.008H126.367ZM116.831 14.264H126.367V18.312H124.735V15.592H116.831V14.264ZM123.391 7.256H115.359V6.008H123.391V7.256ZM117.407 5.384V4.136H121.391V5.384H117.407ZM121.087 9.608C121.087 9.08 120.415 8.808 119.359 8.808C118.319 8.808 117.631 9.08 117.631 9.608C117.631 10.12 118.335 10.408 119.359 10.408C120.415 10.408 121.087 10.104 121.087 9.608ZM140.755 14.344H139.123V4.008H140.755V14.344ZM141.091 17.848H131.331V13.368H132.963V16.536H141.091V17.848ZM136.755 8.552C136.755 10.584 135.283 12.04 133.107 12.04C130.931 12.04 129.427 10.584 129.427 8.568C129.427 6.536 130.915 5.064 133.107 5.064C135.283 5.064 136.755 6.52 136.755 8.552ZM135.123 8.552C135.123 7.304 134.355 6.424 133.107 6.424C131.891 6.424 131.075 7.336 131.075 8.552C131.075 9.72 131.891 10.648 133.107 10.648C134.355 10.648 135.123 9.72 135.123 8.552ZM154.599 18.264H152.967V4.008H154.599V18.264ZM143.287 10.104C143.287 7.096 144.647 5.112 146.935 5.112C149.223 5.112 150.551 7.096 150.551 10.12C150.551 13.112 149.223 15.096 146.935 15.096C144.647 15.096 143.287 13.112 143.287 10.104ZM148.999 10.104C148.999 7.816 148.151 6.456 146.935 6.456C145.735 6.456 144.903 7.816 144.903 10.104C144.903 12.392 145.735 13.768 146.935 13.768C148.151 13.768 148.999 12.392 148.999 10.104ZM174.102 10.936H171.99V18.264H170.342V4.008H171.99V9.576H174.102V10.936ZM168.246 5.512C168.134 9.928 165.974 13.336 161.862 15.592L160.838 14.344C164.118 12.84 166.214 9.848 166.486 6.856H161.67V5.512H168.246ZM187.641 11.784H174.761V10.456H187.641V11.784ZM186.057 9.016H176.505V4.28H178.153V7.688H186.057V9.016ZM186.169 15.624C186.169 17.224 184.393 18.28 181.209 18.28C178.041 18.28 176.265 17.224 176.265 15.624C176.265 14.024 178.041 12.968 181.193 12.968C184.393 12.968 186.169 14.024 186.169 15.624ZM184.473 15.64C184.473 14.792 183.225 14.296 181.193 14.296C179.193 14.296 177.929 14.792 177.929 15.64C177.929 16.488 179.193 16.968 181.193 16.968C183.225 16.968 184.473 16.488 184.473 15.64ZM200.621 18.264H199.053V11.176H197.645V17.592H196.093V4.296H197.645V9.816H199.053V4.008H200.621V18.264ZM195.165 12.264C195.165 13.928 193.917 15.032 192.093 15.032C190.269 15.032 189.021 13.832 189.021 12.264C189.021 10.552 190.269 9.464 192.093 9.464C193.917 9.464 195.165 10.584 195.165 12.264ZM188.477 8.76V7.4H195.565V8.76H188.477ZM193.661 12.264C193.661 11.368 193.005 10.776 192.093 10.776C191.181 10.776 190.525 11.368 190.525 12.264C190.525 13.128 191.181 13.72 192.093 13.72C193.005 13.72 193.661 13.096 193.661 12.264ZM190.157 6.44V5.064H194.013V6.44H190.157ZM214.065 8.632C214.065 10.792 212.017 12.296 208.881 12.296C205.793 12.296 203.729 10.792 203.729 8.632C203.729 6.488 205.793 4.968 208.881 4.968C212.017 4.968 214.065 6.488 214.065 8.632ZM212.385 8.632C212.385 7.256 211.009 6.328 208.881 6.328C206.785 6.328 205.393 7.256 205.393 8.632C205.393 10.008 206.785 10.936 208.881 10.936C210.993 10.936 212.385 10.008 212.385 8.632ZM215.329 16.456H202.449V15.144H205.425V12.664L207.089 12.648V15.144H210.641V12.648L212.289 12.664V15.144H215.329V16.456Z" fill="#565656"/>
<path d="M6.07222 41.232H1.26022V36.288H6.07222V41.232ZM5.02822 40.38V37.14H2.30422V40.38H5.02822ZM8.31622 39.132H6.61222V38.268H8.31622V35.352H9.38422V42.996H8.31622V39.132ZM9.61222 45.516H2.58022V42.264H3.63622V44.664H9.61222V45.516ZM17.559 42.792L16.935 43.584C15.915 42.996 14.667 41.664 14.319 40.5C13.995 41.688 12.915 43.02 11.667 43.8L10.983 43.02C12.591 42.096 13.767 40.332 13.767 38.34V37.32H11.367V36.444H17.175V37.32H14.859V38.328C14.859 40.368 16.071 41.964 17.559 42.792ZM18.711 39.984H16.599V39.084H18.711V35.352H19.779V45.84H18.711V39.984ZM34.1662 44.508H24.6982V43.644H28.8742V41.988H25.8382V38.616H31.9342V37.08H25.8142V36.216H32.9902V39.48H26.8942V41.124H33.2782V41.988H29.9422V43.644H34.1662V44.508ZM44.549 44.316H35.081V43.452H44.549V44.316ZM43.289 36.54C43.289 38.928 43.109 41.34 42.797 42.696L41.765 42.564C42.029 41.556 42.209 38.976 42.209 37.392H36.065V36.54H43.289ZM54.0678 42.972H52.9998V35.352H54.0678V42.972ZM54.3078 45.516H47.1678V42.252H48.2358V44.664H54.3078V45.516ZM48.4998 36.06C50.1198 36.06 51.3078 37.176 51.3078 38.676C51.3078 40.188 50.1198 41.232 48.4998 41.232C46.8918 41.232 45.7038 40.188 45.7038 38.688C45.7038 37.176 46.8918 36.06 48.4998 36.06ZM48.4998 36.972C47.5158 36.972 46.8198 37.692 46.8198 38.664C46.8198 39.624 47.5158 40.344 48.4998 40.344C49.5318 40.344 50.1798 39.636 50.1798 38.676C50.1798 37.68 49.5318 36.972 48.4998 36.972ZM68.671 39.768H67.099V43.08H66.043V35.352H67.099V38.868H68.671V39.768ZM67.459 45.528H60.463V42.78H61.519V44.676H67.459V45.528ZM63.487 36.54H60.439V35.676H63.487V36.54ZM65.095 38.112H58.939V37.26H65.095V38.112ZM64.507 40.488C64.507 41.64 63.451 42.36 62.023 42.36C60.619 42.36 59.551 41.652 59.551 40.488C59.551 39.3 60.607 38.604 62.023 38.604C63.451 38.604 64.507 39.3 64.507 40.488ZM63.451 40.488C63.451 39.816 62.791 39.456 62.023 39.456C61.267 39.456 60.607 39.816 60.607 40.488C60.607 41.124 61.267 41.508 62.023 41.508C62.791 41.508 63.451 41.124 63.451 40.488ZM80.5021 39.948C80.5021 41.028 79.1941 41.58 77.2741 41.58C75.3661 41.58 74.0581 41.028 74.0581 39.948C74.0581 38.868 75.3661 38.304 77.2741 38.304C79.1941 38.304 80.5021 38.868 80.5021 39.948ZM77.7901 45.84H76.7221V42.984H72.5341V42.12H82.0021V42.984H77.7901V45.84ZM81.4501 37.86H73.1101V36.996H81.4501V37.86ZM79.4101 39.948C79.4101 39.384 78.3181 39.156 77.2741 39.156C76.2541 39.156 75.1501 39.384 75.1501 39.948C75.1501 40.5 76.2541 40.74 77.2741 40.74C78.3181 40.74 79.4101 40.5 79.4101 39.948ZM79.0741 36.384H75.4741V35.508H79.0741V36.384ZM82.7369 46.116L83.1569 43.692H84.3689L83.6249 46.116H82.7369ZM90.499 42.396H90.931C92.311 42.396 94.243 42.288 95.299 42.06L95.419 42.924C94.327 43.152 92.527 43.272 90.619 43.284H89.443V36.456H94.399V37.332H90.499V42.396ZM97.099 35.352V39.444H98.731V40.332H97.099V45.84H96.043V35.352H97.099ZM107.614 43.776C107.614 45 106.366 45.816 104.098 45.816C101.83 45.816 100.594 45 100.594 43.776C100.594 42.54 101.83 41.724 104.098 41.724C106.366 41.724 107.614 42.552 107.614 43.776ZM104.098 42.6C102.586 42.6 101.686 43.056 101.686 43.776C101.686 44.508 102.586 44.952 104.098 44.952C105.61 44.952 106.522 44.508 106.522 43.776C106.522 43.044 105.61 42.6 104.098 42.6ZM102.214 35.94C103.714 35.94 104.962 36.96 104.962 38.448C104.962 39.948 103.726 40.908 102.214 40.908C100.714 40.908 99.4778 39.948 99.4778 38.46C99.4778 36.972 100.714 35.94 102.214 35.94ZM102.214 36.84C101.242 36.84 100.534 37.536 100.534 38.436C100.534 39.396 101.242 40.044 102.214 40.044C103.21 40.044 103.882 39.396 103.882 38.448C103.882 37.524 103.246 36.84 102.214 36.84ZM109.042 39.192V40.068H107.482V41.616H106.414V35.352H107.482V36.876H109.042V37.752H107.482V39.192H109.042ZM119.437 39.768H117.865V43.08H116.809V35.352H117.865V38.868H119.437V39.768ZM118.225 45.528H111.229V42.78H112.285V44.676H118.225V45.528ZM114.253 36.54H111.205V35.676H114.253V36.54ZM115.861 38.112H109.705V37.26H115.861V38.112ZM115.273 40.488C115.273 41.64 114.217 42.36 112.789 42.36C111.385 42.36 110.317 41.652 110.317 40.488C110.317 39.3 111.373 38.604 112.789 38.604C114.217 38.604 115.273 39.3 115.273 40.488ZM114.217 40.488C114.217 39.816 113.557 39.456 112.789 39.456C112.033 39.456 111.373 39.816 111.373 40.488C111.373 41.124 112.033 41.508 112.789 41.508C113.557 41.508 114.217 41.124 114.217 40.488ZM131.904 45.84H130.836V35.352H131.904V45.84ZM128.832 36.468C128.772 39.804 126.828 42.252 123.96 43.812L123.312 43.008C125.784 41.82 127.488 39.624 127.68 37.368H123.78V36.468H128.832ZM143.151 41.04H133.683V40.188H143.151V41.04ZM142.071 43.812C142.071 45.012 140.787 45.744 138.423 45.744C136.071 45.744 134.787 45.012 134.787 43.812C134.787 42.624 136.071 41.892 138.423 41.892C140.787 41.892 142.071 42.624 142.071 43.812ZM138.423 42.756C136.863 42.756 135.879 43.128 135.879 43.824C135.879 44.508 136.863 44.892 138.423 44.892C140.007 44.892 140.991 44.508 140.991 43.824C140.991 43.128 140.007 42.756 138.423 42.756ZM141.999 39.156H134.979V35.628H136.035V38.292H141.999V39.156ZM153.533 40.692H144.065V39.828H153.533V40.692ZM152.741 45.768H145.145V43.2H151.289V42.444H145.121V41.58H152.345V43.992H146.201V44.892H152.741V45.768ZM152.441 37.356C152.441 38.532 151.085 39.204 148.805 39.204C146.549 39.204 145.193 38.532 145.193 37.356C145.193 36.168 146.549 35.496 148.805 35.496C151.085 35.496 152.441 36.168 152.441 37.356ZM148.805 36.348C147.269 36.348 146.297 36.756 146.297 37.356C146.297 37.944 147.269 38.352 148.805 38.352C150.365 38.352 151.349 37.944 151.349 37.356C151.349 36.756 150.365 36.348 148.805 36.348ZM167.333 40.404H165.701V45.84H164.645V35.352H165.701V39.528H167.333V40.404ZM163.781 42.492L163.145 43.284C162.209 42.672 160.985 41.364 160.589 40.152C160.229 41.424 159.185 42.756 157.997 43.548L157.337 42.756C158.921 41.76 160.037 39.936 160.037 38.004V36.252H161.129V37.956C161.129 39.924 162.305 41.58 163.781 42.492ZM176.323 37.584C176.323 38.292 175.879 38.844 175.063 39.18V40.608H177.451V41.472H167.983V40.608H170.323V39.156C169.519 38.82 169.099 38.28 169.099 37.584C169.099 36.384 170.431 35.628 172.711 35.628C175.003 35.628 176.323 36.384 176.323 37.584ZM176.443 43.932C176.443 45.132 175.039 45.828 172.711 45.828C170.395 45.828 169.003 45.132 169.003 43.932C169.003 42.732 170.395 42.048 172.711 42.048C175.039 42.048 176.443 42.732 176.443 43.932ZM175.243 37.584C175.243 36.864 174.271 36.468 172.711 36.468C171.163 36.468 170.191 36.864 170.191 37.584C170.191 38.304 171.163 38.7 172.711 38.7C174.247 38.7 175.243 38.304 175.243 37.584ZM172.711 42.9C171.163 42.9 170.131 43.248 170.131 43.944C170.131 44.616 171.163 44.964 172.711 44.964C174.283 44.964 175.327 44.616 175.327 43.944C175.327 43.248 174.271 42.9 172.711 42.9ZM172.711 39.552C172.219 39.552 171.775 39.516 171.379 39.444V40.608H174.007V39.456C173.623 39.516 173.191 39.552 172.711 39.552ZM187.222 45.84H186.202V40.56H185.122V45.324H184.102V35.58H185.122V39.684H186.202V35.352H187.222V45.84ZM183.37 41.34C183.37 42.612 182.434 43.404 181.066 43.404C179.698 43.404 178.75 42.54 178.75 41.34C178.75 40.08 179.698 39.288 181.066 39.288C182.434 39.288 183.37 40.092 183.37 41.34ZM182.35 41.34C182.35 40.656 181.81 40.152 181.066 40.152C180.298 40.152 179.77 40.668 179.77 41.34C179.77 42.048 180.298 42.552 181.066 42.552C181.81 42.552 182.35 42.024 182.35 41.34ZM183.586 38.808H178.39V37.932H183.586V38.808ZM182.374 37.008H179.554V36.144H182.374V37.008ZM197.065 41.628H193.993V43.692H198.217V44.556H188.749V43.692H192.925V41.628H189.889V36.084H190.957V37.992H196.009V36.084H197.065V41.628ZM196.009 40.752V38.856H190.957V40.752H196.009ZM207.988 45.84H206.968V35.352H207.988V45.84ZM205.912 45.324H204.904V39.948H203.248V39.072H204.904V35.592H205.912V45.324ZM204.352 42.48L203.704 43.224C202.924 42.696 202 41.52 201.688 40.38C201.436 41.544 200.56 42.792 199.528 43.5L198.868 42.756C200.104 41.964 201.172 40.248 201.172 38.136V36.348H202.192V38.124C202.192 40.152 203.164 41.736 204.352 42.48ZM218.155 38.772C218.155 40.404 216.595 41.484 214.243 41.484C211.903 41.484 210.343 40.404 210.343 38.772C210.343 37.14 211.903 36.048 214.243 36.048C216.607 36.048 218.155 37.14 218.155 38.772ZM217.063 38.772C217.063 37.668 215.947 36.924 214.243 36.924C212.551 36.924 211.435 37.668 211.435 38.772C211.435 39.864 212.551 40.608 214.243 40.608C215.935 40.608 217.063 39.864 217.063 38.772ZM218.983 44.508H209.515V43.644H211.783V41.784L212.851 41.748V43.644H215.623V41.748L216.679 41.784V43.644H218.983V44.508ZM220.605 42.588L220.473 36.048H221.637L221.505 42.588H220.605ZM220.485 44.7V43.536H221.649V44.7H220.485Z" fill="#565656"/>
</svg>
