<svg width="24" height="25" viewBox="0 0 24 25" fill="none" xmlns="http://www.w3.org/2000/svg">
<path fill-rule="evenodd" clip-rule="evenodd" d="M11.9923 23.7185C17.9531 23.7185 22.7854 18.8862 22.7854 12.9254C22.7854 6.96463 17.9531 2.13234 11.9923 2.13234C6.03153 2.13234 1.19923 6.96463 1.19923 12.9254C1.19923 18.8862 6.03153 23.7185 11.9923 23.7185ZM11.9923 24.9177C18.6156 24.9177 23.9846 19.5488 23.9846 12.9254C23.9846 6.30206 18.6156 0.933105 11.9923 0.933105C5.36895 0.933105 0 6.30206 0 12.9254C0 19.5488 5.36895 24.9177 11.9923 24.9177Z" fill="#DEDEDE"/>
<path d="M4.79688 19.8986C4.79688 19.2792 5.25978 18.7558 5.87618 18.6874C10.5022 18.1753 13.5033 18.2215 18.1191 18.6988C18.3496 18.723 18.5681 18.8138 18.7478 18.9601C18.9276 19.1064 19.0608 19.3019 19.1313 19.5227C19.2017 19.7435 19.2064 19.9801 19.1446 20.2035C19.0828 20.4268 18.9574 20.6274 18.7835 20.7807C13.336 25.529 10.2228 25.4637 5.18063 20.7855C4.93479 20.5576 4.79688 20.2332 4.79688 19.8986Z" fill="#DEDEDE"/>
<path fill-rule="evenodd" clip-rule="evenodd" d="M18.0574 19.2956C13.4781 18.8219 10.5202 18.7775 5.94155 19.2842C5.79083 19.3018 5.65189 19.3743 5.55132 19.4879C5.45075 19.6016 5.39563 19.7483 5.3965 19.9C5.3965 20.0715 5.46785 20.234 5.58838 20.3467C8.08757 22.6648 9.98115 23.7124 11.8322 23.719C13.6898 23.7256 15.6853 22.6864 18.3896 20.3299C18.4755 20.2535 18.5373 20.1537 18.5676 20.0427C18.5978 19.9318 18.5952 19.8144 18.56 19.7049C18.5249 19.5954 18.4586 19.4985 18.3694 19.4259C18.2801 19.3534 18.1717 19.3077 18.0574 19.2956ZM5.81023 18.0922C10.4848 17.5747 13.5297 17.6215 18.1815 18.103C18.5282 18.1392 18.8569 18.2757 19.1273 18.4958C19.3977 18.7159 19.598 19.0101 19.7037 19.3423C19.8095 19.6745 19.8161 20.0304 19.7227 20.3663C19.6294 20.7022 19.4401 21.0036 19.178 21.2336C16.4348 23.6248 14.1503 24.9272 11.8286 24.9182C9.50026 24.9098 7.31647 23.5853 4.7735 21.2258C4.59143 21.0562 4.44628 20.8509 4.34714 20.6227C4.24799 20.3944 4.19697 20.1482 4.19727 19.8994C4.19639 19.4524 4.36049 19.0207 4.65811 18.6871C4.95574 18.3535 5.36597 18.1421 5.81023 18.0922Z" fill="#DEDEDE"/>
<path d="M16.7896 10.5269C16.7896 11.7991 16.2843 13.0192 15.3847 13.9188C14.4851 14.8184 13.2649 15.3238 11.9927 15.3238C10.7205 15.3238 9.50038 14.8184 8.60079 13.9188C7.70119 13.0192 7.1958 11.7991 7.1958 10.5269C7.1958 9.25468 7.70119 8.03456 8.60079 7.13497C9.50038 6.23537 10.7205 5.72998 11.9927 5.72998C13.2649 5.72998 14.4851 6.23537 15.3847 7.13497C16.2843 8.03456 16.7896 9.25468 16.7896 10.5269Z" fill="#DEDEDE"/>
<path fill-rule="evenodd" clip-rule="evenodd" d="M11.9927 14.1246C12.9469 14.1246 13.862 13.7455 14.5367 13.0709C15.2114 12.3962 15.5904 11.4811 15.5904 10.5269C15.5904 9.57273 15.2114 8.65765 14.5367 7.98295C13.862 7.30825 12.9469 6.92921 11.9927 6.92921C11.0386 6.92921 10.1235 7.30825 9.44877 7.98295C8.77407 8.65765 8.39503 9.57273 8.39503 10.5269C8.39503 11.4811 8.77407 12.3962 9.44877 13.0709C10.1235 13.7455 11.0386 14.1246 11.9927 14.1246ZM11.9927 15.3238C13.2649 15.3238 14.4851 14.8184 15.3847 13.9188C16.2843 13.0192 16.7896 11.7991 16.7896 10.5269C16.7896 9.25468 16.2843 8.03456 15.3847 7.13497C14.4851 6.23537 13.2649 5.72998 11.9927 5.72998C10.7205 5.72998 9.50038 6.23537 8.60079 7.13497C7.70119 8.03456 7.1958 9.25468 7.1958 10.5269C7.1958 11.7991 7.70119 13.0192 8.60079 13.9188C9.50038 14.8184 10.7205 15.3238 11.9927 15.3238Z" fill="#DEDEDE"/>
</svg>
