<svg width="300" height="45" viewBox="0 0 300 45" fill="none" xmlns="http://www.w3.org/2000/svg">
<rect width="300" height="45" rx="5" fill="#66D4C2"/>
<path d="M136.691 18.6875V20.0547H128.092V16.2266H136.596V17.6211H129.828V18.6875H136.691ZM138.018 20.7246V22.1055H133.205V22.9258H136.637V26.0977H129.705V26.8359H136.965V28.1621H127.996V24.8809H134.914V24.2109H127.982V22.9258H131.469V22.1055H126.67V20.7246H138.018ZM149.256 15.8164V28.2852H147.52V21.7227H145.51V20.3008H147.52V15.8164H149.256ZM144.812 16.8555V21.5176H140.943V23.9512C142.659 23.9375 144.115 23.876 145.715 23.5957L145.852 25.0176C144.006 25.3184 142.311 25.3867 140.232 25.3867H139.207V20.1367H143.117V18.2637H139.18V16.8555H144.812ZM162.258 25.3867V26.8086H150.869V25.3867H155.668V23.0898H152.072V16.6094H153.822V18.5371H159.25V16.6094H160.986V23.0898H157.404V25.3867H162.258ZM153.822 21.6953H159.25V19.9316H153.822V21.6953ZM173.428 15.8164V28.2578H171.664V15.8164H173.428ZM169.695 17.1152C169.695 20.8887 168.369 24.0195 163.926 26.125L163.01 24.7305C166.223 23.2129 167.638 21.2441 167.918 18.4824H163.68V17.1152H169.695Z" fill="#EEFBF8"/>
</svg>
