<svg width="113" height="17" viewBox="0 0 113 17" fill="none" xmlns="http://www.w3.org/2000/svg">
<path d="M8.93163 1.35704C8.92749 1.92887 9.13467 2.48826 9.55318 3.03522C9.97169 3.58218 10.5891 4.05663 11.4054 4.45856C12.2217 4.8605 13.1996 5.12776 14.3391 5.26036L13.5497 6.99447C12.1989 6.82044 11.0283 6.46616 10.038 5.93163C9.04765 5.39296 8.29144 4.72583 7.76934 3.93025C7.24309 4.72583 6.48481 5.39088 5.49448 5.92541C4.50829 6.45994 3.34599 6.8163 2.0076 6.99447L1.18715 5.26036C2.33494 5.11947 3.31699 4.85014 4.13329 4.45235C4.95373 4.05456 5.57113 3.58425 5.9855 3.04144C6.40401 2.49447 6.61533 1.93301 6.61948 1.35704V0.834944H8.93163V1.35704ZM0.478591 7.79005H15.0725V9.58011H8.86326V10.8481C9.79144 10.9185 10.587 11.078 11.25 11.3267C11.9171 11.5711 12.4268 11.8964 12.779 12.3025C13.1354 12.7086 13.3156 13.183 13.3198 13.7258C13.3156 14.3432 13.0898 14.8674 12.6423 15.2983C12.1989 15.7334 11.5608 16.0628 10.7279 16.2866C9.89503 16.5104 8.90055 16.6202 7.74448 16.616C6.57597 16.6202 5.5732 16.5104 4.73619 16.2866C3.89917 16.0628 3.25691 15.7334 2.80939 15.2983C2.36602 14.8674 2.14434 14.3432 2.14434 13.7258C2.14434 13.183 2.32044 12.7086 2.67265 12.3025C3.02486 11.8964 3.53453 11.5711 4.20166 11.3267C4.86878 11.078 5.67058 10.9185 6.60704 10.8481V9.58011H0.478591V7.79005ZM4.43163 13.7258C4.42334 14.1319 4.69682 14.4365 5.25207 14.6395C5.80732 14.8425 6.63812 14.9441 7.74448 14.9441C8.83425 14.9441 9.65884 14.8425 10.2182 14.6395C10.7818 14.4323 11.0656 14.1278 11.0698 13.7258C11.0656 12.9344 9.95718 12.5325 7.74448 12.52C6.63398 12.5283 5.80318 12.6319 5.25207 12.8308C4.70097 13.0297 4.42749 13.328 4.43163 13.7258ZM29.3985 8.71616H27.1734V0.611188H29.3985V8.71616ZM15.9606 7.00691C16.8184 6.75 17.5373 6.37293 18.1174 5.87569C18.6975 5.37845 19.1264 4.81284 19.404 4.17887C19.6858 3.54489 19.8287 2.88398 19.8329 2.19613V0.971684H22.1575V2.19613C22.1533 2.86326 22.2859 3.49724 22.5553 4.09807C22.8287 4.69889 23.2493 5.23342 23.817 5.70166C24.3847 6.16575 25.0912 6.51796 25.9365 6.75829L24.8363 8.48619C23.9413 8.22514 23.1727 7.83149 22.5304 7.30525C21.8923 6.77486 21.3868 6.14296 21.0138 5.40953C20.6368 6.20925 20.1167 6.89917 19.4537 7.47928C18.7908 8.05939 17.9972 8.48619 17.0732 8.75967L15.9606 7.00691ZM18.6892 9.41851H29.4234V13.7445H20.9144V14.7452H29.8584V16.5104H18.7265V12.0912H27.1858V11.1526H18.6892V9.41851ZM45.4151 16.6222H43.2956V8.59185H41.7542V15.8391H39.6968V0.890883H41.7542V6.79558H43.2956V0.611188H45.4151V16.6222ZM32.0394 2.46961H38.0125V4.2721H34.2894V11.1153C35.1264 11.1029 35.8971 11.0677 36.6015 11.0097C37.306 10.9517 38.0228 10.8564 38.7521 10.7238L38.9199 12.5511C38.0207 12.7251 37.1361 12.8412 36.2659 12.8992C35.3999 12.9572 34.364 12.9883 33.1582 12.9924H32.0394V2.46961ZM61.009 16.6222H58.8647V0.611188H61.009V16.6222ZM47.2853 7.54144C47.2853 6.36464 47.4261 5.34116 47.7079 4.47099C47.9938 3.60083 48.3978 2.93163 48.9199 2.4634C49.4462 1.99517 50.0594 1.76105 50.7597 1.76105C51.3978 1.76105 51.9655 1.95166 52.4627 2.33287C52.96 2.71409 53.3619 3.26312 53.6685 3.97997C53.9793 4.69682 54.1741 5.54834 54.2528 6.53453H55.558V0.859806H57.6775V15.8826H55.558V8.32459H54.2714C54.2093 9.3605 54.0249 10.2576 53.7183 11.0159C53.4116 11.7742 53.0056 12.3543 52.5 12.7562C51.9945 13.1581 51.4144 13.3591 50.7597 13.3591C50.0594 13.3591 49.4462 13.125 48.9199 12.6568C48.3978 12.1885 47.9938 11.5173 47.7079 10.643C47.4261 9.7645 47.2853 8.73066 47.2853 7.54144ZM49.3488 7.54144C49.3446 8.75552 49.4648 9.67127 49.7093 10.2887C49.9538 10.9061 50.3039 11.2127 50.7597 11.2086C51.2321 11.2127 51.5946 10.9061 51.8474 10.2887C52.1043 9.67127 52.2328 8.75552 52.2328 7.54144C52.2328 6.33563 52.1043 5.42403 51.8474 4.80663C51.5905 4.18508 51.2279 3.87638 50.7597 3.88052C50.3039 3.87638 49.9538 4.18508 49.7093 4.80663C49.4648 5.42403 49.3446 6.33563 49.3488 7.54144ZM68.759 4.24102C68.7549 5.27279 68.8937 6.25898 69.1755 7.19959C69.4572 8.13605 69.8882 8.96685 70.4683 9.69199C71.0484 10.413 71.7673 10.9579 72.625 11.3267L71.2701 13.1105C70.3999 12.692 69.6603 12.1057 69.0511 11.3515C68.4462 10.5932 67.9717 9.70442 67.6278 8.68508C67.2715 9.77072 66.7784 10.7196 66.1485 11.5318C65.5228 12.3398 64.7666 12.9634 63.8799 13.4026L62.4752 11.5815C63.3536 11.1837 64.0912 10.6036 64.6879 9.84116C65.2887 9.07873 65.7362 8.21478 66.0304 7.24931C66.3246 6.2797 66.4738 5.27693 66.4779 4.24102V1.84807H68.759V4.24102ZM70.8474 5.65193H73.98V0.611188H76.1989V16.6595H73.98V7.46064H70.8474V5.65193Z" fill="black"/>
<path d="M95.8916 16.6347H93.654V12.5884H84.8964V10.8108H95.8916V16.6347ZM83.0753 1.76726H90.6768V4.45235H93.654V0.611188H95.8916V10.0773H93.654V6.24862H90.6768V9.21961H83.0753V1.76726ZM88.4765 7.4482V3.56975H85.3004V7.4482H88.4765ZM103.872 4.97445C103.867 5.81146 104.012 6.65262 104.307 7.49793C104.601 8.34323 105.044 9.11602 105.637 9.8163C106.229 10.5124 106.946 11.0552 107.787 11.4448L106.538 13.2037C105.672 12.8059 104.92 12.2279 104.282 11.4696C103.648 10.7072 103.146 9.82873 102.778 8.83425C102.405 9.93232 101.889 10.8978 101.23 11.7307C100.571 12.5635 99.7942 13.1913 98.8992 13.614L97.5939 11.8425C98.4475 11.4448 99.1768 10.8791 99.7818 10.1457C100.387 9.40815 100.843 8.58978 101.149 7.69061C101.456 6.78729 101.611 5.88191 101.615 4.97445V3.9924H98.2279V2.15884H107.091V3.9924H103.872V4.97445ZM108.34 0.611188H110.584V6.72721H112.946V8.59807H110.584V16.6222H108.34V0.611188Z" fill="#66D4C2"/>
</svg>
