<svg width="300" height="45" viewBox="0 0 300 45" fill="none" xmlns="http://www.w3.org/2000/svg">
<path d="M135.609 20.043V21.082H127.215V17.3633H135.486V18.416H128.514V20.043H135.609ZM136.922 21.957V23.0098H131.973V24.0898H135.514V26.9473H128.377V28.0273H135.855V29.0391H127.105V26.0176H134.229V25.0605H127.092V24.0898H130.688V23.0098H125.752V21.957H136.922ZM148.051 16.9121V29.1895H146.766V22.5996H144.523V21.5195H146.766V16.9121H148.051ZM143.799 18.0195V22.3945H139.602V25.1836C141.557 25.1768 143.061 25.1084 144.77 24.8008L144.879 25.8672C143.047 26.1953 141.434 26.2637 139.273 26.2773H138.303V21.3418H142.541V19.0723H138.275V18.0195H143.799ZM161.162 26.5645V27.6445H149.951V26.5645H154.887V24.0488H151.236V17.7461H152.535V19.8516H158.551V17.7461H159.836V24.0488H156.172V26.5645H161.162ZM152.535 22.9961H158.551V20.9043H152.535V22.9961ZM172.236 16.9121V29.1621H170.924V16.9121H172.236ZM168.586 18.2246C168.586 21.8066 167.055 24.9238 162.857 26.9336L162.174 25.8809C165.435 24.3291 167.021 22.1211 167.273 19.2637H162.762V18.2246H168.586Z" fill="#A8A8A8"/>
</svg>
