<svg width="230" height="75" viewBox="0 0 230 75" fill="none" xmlns="http://www.w3.org/2000/svg">
<rect y="19.25" width="32.5" height="7.5" fill="white"/>
<rect y="33.75" width="22.5" height="7.5" fill="white"/>
<rect y="48.25" width="32.5" height="7.5" fill="white"/>
<path d="M61.95 48.8H48.85L46.75 55H37.8L50.5 19.9H60.4L73.1 55H64.05L61.95 48.8ZM59.75 42.2L55.4 29.35L51.1 42.2H59.75ZM102.215 19.9V26.75H92.9152V55H84.3652V26.75H75.0652V19.9H102.215ZM128.006 33.9V41H106.006V33.9H128.006ZM148.21 55.35C145.643 55.35 143.343 54.9333 141.31 54.1C139.277 53.2667 137.643 52.0333 136.41 50.4C135.21 48.7667 134.577 46.8 134.51 44.5H143.61C143.743 45.8 144.193 46.8 144.96 47.5C145.727 48.1667 146.727 48.5 147.96 48.5C149.227 48.5 150.227 48.2167 150.96 47.65C151.693 47.05 152.06 46.2333 152.06 45.2C152.06 44.3333 151.76 43.6167 151.16 43.05C150.593 42.4833 149.877 42.0167 149.01 41.65C148.177 41.2833 146.977 40.8667 145.41 40.4C143.143 39.7 141.293 39 139.86 38.3C138.427 37.6 137.193 36.5667 136.16 35.2C135.127 33.8333 134.61 32.05 134.61 29.85C134.61 26.5833 135.793 24.0333 138.16 22.2C140.527 20.3333 143.61 19.4 147.41 19.4C151.277 19.4 154.393 20.3333 156.76 22.2C159.127 24.0333 160.393 26.6 160.56 29.9H151.31C151.243 28.7667 150.827 27.8833 150.06 27.25C149.293 26.5833 148.31 26.25 147.11 26.25C146.077 26.25 145.243 26.5333 144.61 27.1C143.977 27.6333 143.66 28.4167 143.66 29.45C143.66 30.5833 144.193 31.4667 145.26 32.1C146.327 32.7333 147.993 33.4167 150.26 34.15C152.527 34.9167 154.36 35.65 155.76 36.35C157.193 37.05 158.427 38.0667 159.46 39.4C160.493 40.7333 161.01 42.45 161.01 44.55C161.01 46.55 160.493 48.3667 159.46 50C158.46 51.6333 156.993 52.9333 155.06 53.9C153.127 54.8667 150.843 55.35 148.21 55.35ZM178.972 55.35C176.405 55.35 174.105 54.9333 172.072 54.1C170.039 53.2667 168.405 52.0333 167.172 50.4C165.972 48.7667 165.339 46.8 165.272 44.5H174.372C174.505 45.8 174.955 46.8 175.722 47.5C176.489 48.1667 177.489 48.5 178.722 48.5C179.989 48.5 180.989 48.2167 181.722 47.65C182.455 47.05 182.822 46.2333 182.822 45.2C182.822 44.3333 182.522 43.6167 181.922 43.05C181.355 42.4833 180.639 42.0167 179.772 41.65C178.939 41.2833 177.739 40.8667 176.172 40.4C173.905 39.7 172.055 39 170.622 38.3C169.189 37.6 167.955 36.5667 166.922 35.2C165.889 33.8333 165.372 32.05 165.372 29.85C165.372 26.5833 166.555 24.0333 168.922 22.2C171.289 20.3333 174.372 19.4 178.172 19.4C182.039 19.4 185.155 20.3333 187.522 22.2C189.889 24.0333 191.155 26.6 191.322 29.9H182.072C182.005 28.7667 181.589 27.8833 180.822 27.25C180.055 26.5833 179.072 26.25 177.872 26.25C176.839 26.25 176.005 26.5333 175.372 27.1C174.739 27.6333 174.422 28.4167 174.422 29.45C174.422 30.5833 174.955 31.4667 176.022 32.1C177.089 32.7333 178.755 33.4167 181.022 34.15C183.289 34.9167 185.122 35.65 186.522 36.35C187.955 37.05 189.189 38.0667 190.222 39.4C191.255 40.7333 191.772 42.45 191.772 44.55C191.772 46.55 191.255 48.3667 190.222 50C189.222 51.6333 187.755 52.9333 185.822 53.9C183.889 54.8667 181.605 55.35 178.972 55.35ZM205.434 19.9V40.9C205.434 43 205.95 44.6167 206.984 45.75C208.017 46.8833 209.534 47.45 211.534 47.45C213.534 47.45 215.067 46.8833 216.134 45.75C217.2 44.6167 217.734 43 217.734 40.9V19.9H226.284V40.85C226.284 43.9833 225.617 46.6333 224.284 48.8C222.95 50.9667 221.15 52.6 218.884 53.7C216.65 54.8 214.15 55.35 211.384 55.35C208.617 55.35 206.134 54.8167 203.934 53.75C201.767 52.65 200.05 51.0167 198.784 48.85C197.517 46.65 196.884 43.9833 196.884 40.85V19.9H205.434Z" fill="black"/>
</svg>
