<svg width="300" height="45" viewBox="0 0 300 45" fill="none" xmlns="http://www.w3.org/2000/svg">
<g clip-path="url(#clip0_7779_2809)">
<path fill-rule="evenodd" clip-rule="evenodd" d="M6 0H294C297.314 0 299.1 2.686 299.1 6V38.1C299.1 42.314 297.314 45 294 45H6C2.686 45 0 42.314 0 38.1V6C0 2.686 2.686 0 6 0Z" fill="#FEE500"/>
<path opacity="0.902" fill-rule="evenodd" clip-rule="evenodd" d="M24 13.9761C19.029 13.9761 15 17.1061 15 20.9651C15 23.3651 16.558 25.4821 18.932 26.7401L17.933 30.4071C17.845 30.7311 18.213 30.9891 18.496 30.8011L22.873 27.8971C23.243 27.9331 23.618 27.9541 24 27.9541C28.97 27.9541 32.1 24.8251 32.1 20.9651C32.1 17.1061 28.97 13.9761 24 13.9761Z" fill="black"/>
<path d="M119.395 17.1049C119.305 21.8449 117.01 24.6649 113.41 26.4049L112.705 25.5499C114.865 24.6199 116.53 23.1499 117.445 21.1999L113.02 21.5899L112.78 20.5549L117.805 20.2549C118.015 19.5649 118.15 18.8299 118.195 18.0499H113.335V17.1049H119.395ZM122.65 15.7549V21.1249H124.795V22.0999H122.65V28.8649H121.51V15.7549H122.65ZM132.374 17.1049C132.284 21.8449 129.989 24.6649 126.389 26.4049L125.684 25.5499C127.844 24.6199 129.509 23.1499 130.424 21.1999L125.999 21.5899L125.759 20.5549L130.784 20.2549C130.994 19.5649 131.129 18.8299 131.174 18.0499H126.314V17.1049H132.374ZM135.629 15.7549V21.1249H137.774V22.0999H135.629V28.8649H134.489V15.7549H135.629ZM149.162 20.1499C149.162 22.1599 147.512 23.5249 144.992 23.6899V26.1799H150.362V27.1399H138.527V26.1799H143.852V23.6899C141.347 23.5099 139.712 22.1599 139.712 20.1499C139.712 17.9899 141.602 16.5799 144.422 16.5799C147.287 16.5799 149.162 17.9899 149.162 20.1499ZM148.067 20.1649C148.067 18.5899 146.642 17.5399 144.422 17.5399C142.247 17.5399 140.822 18.5899 140.822 20.1649C140.822 21.7399 142.247 22.7749 144.422 22.7749C146.627 22.7749 148.067 21.7399 148.067 20.1649ZM167.281 27.1999H155.446V26.2399H160.771V24.0049H156.901V19.9099H164.671V17.8099H156.886V16.8499H165.811V20.8549H158.041V23.0449H166.186V24.0049H161.911V26.2399H167.281V27.1999ZM180.259 26.9299H168.424V25.9699H180.259V26.9299ZM178.564 17.2249C178.564 20.2399 178.384 22.9699 177.979 24.9799L176.839 24.8299C177.199 23.1649 177.394 20.3149 177.394 18.1699H169.654V17.2249H178.564ZM192.113 25.3249H190.973V15.7549H192.113V25.3249ZM192.443 28.4299H183.563V24.3799H184.703V27.4849H192.443V28.4299ZM185.213 16.6249C187.208 16.6249 188.753 17.9449 188.753 19.8949C188.753 21.8449 187.223 23.1499 185.228 23.1499C183.233 23.1499 181.688 21.8599 181.688 19.9099C181.688 17.9599 183.233 16.6249 185.213 16.6249ZM185.213 17.6149C183.833 17.6149 182.783 18.5599 182.783 19.8949C182.783 21.2149 183.848 22.1449 185.228 22.1449C186.668 22.1449 187.673 21.2149 187.673 19.9099C187.673 18.5599 186.668 17.6149 185.213 17.6149Z" fill="#191919"/>
</g>
<defs>
<clipPath id="clip0_7779_2809">
<rect width="300" height="45" fill="white"/>
</clipPath>
</defs>
</svg>
