<svg width="140" height="38" viewBox="0 0 140 38" fill="none" xmlns="http://www.w3.org/2000/svg">
<g clip-path="url(#clip0_10842_4435)">
<path d="M70.0003 18.3332C74.6027 18.3332 78.3337 14.6022 78.3337 9.99984C78.3337 5.39746 74.6027 1.6665 70.0003 1.6665C65.398 1.6665 61.667 5.39746 61.667 9.99984C61.667 14.6022 65.398 18.3332 70.0003 18.3332Z" fill="#66D4C2"/>
<path d="M70.0003 6.6665V9.99984M70.0003 13.3332H70.0087M78.3337 9.99984C78.3337 14.6022 74.6027 18.3332 70.0003 18.3332C65.398 18.3332 61.667 14.6022 61.667 9.99984C61.667 5.39746 65.398 1.6665 70.0003 1.6665C74.6027 1.6665 78.3337 5.39746 78.3337 9.99984Z" stroke="#FAFAFB" stroke-width="1.5" stroke-linecap="round" stroke-linejoin="round"/>
</g>
<path d="M1.68945 33.9199C2.21354 33.9134 2.7002 33.8906 3.14941 33.8516C3.60189 33.8092 4.07227 33.7376 4.56055 33.6367L4.66797 34.3008C4.1276 34.4147 3.6084 34.4928 3.11035 34.5352C2.61556 34.5742 2.07031 34.5938 1.47461 34.5938H0.927734V29.0566H1.68945V33.9199ZM7.92969 36.791H7.19727V28.1094H7.92969V36.791ZM6.07422 36.3516H5.3418V31.6738H3.35938V31.0391H5.3418V28.3242H6.07422V36.3516ZM16.1719 33.4316H10.166V28.8613H16.0742V29.5059H10.9473V30.7949H15.8887V31.4102H10.9473V32.8066H16.1719V33.4316ZM17.0898 35.6582H9.14062V35.0234H17.0898V35.6582ZM24.9707 36.8008H24.1895V34.6426H22.1875V34.0566H24.1895V28.1191H24.9707V36.8008ZM17.7441 32.6895C18.8965 32.6895 19.9349 32.6732 20.8594 32.6406C21.7839 32.6048 22.6693 32.5267 23.5156 32.4062L23.5645 32.9824C22.7734 33.1159 21.901 33.2103 20.9473 33.2656V36.5273H20.1758V33.3047C19.541 33.3307 18.7663 33.3438 17.8516 33.3438L17.7441 32.6895ZM20.6055 28.5488C21.0319 28.5488 21.4095 28.6204 21.7383 28.7637C22.0703 28.9069 22.3291 29.1087 22.5146 29.3691C22.7002 29.6263 22.793 29.9225 22.793 30.2578C22.793 30.5964 22.7002 30.8942 22.5146 31.1514C22.3324 31.4085 22.0752 31.6071 21.7432 31.7471C21.4111 31.887 21.0319 31.957 20.6055 31.957C20.1758 31.957 19.7949 31.887 19.4629 31.7471C19.1309 31.6071 18.8721 31.4085 18.6865 31.1514C18.501 30.8942 18.4082 30.5964 18.4082 30.2578C18.4082 29.9225 18.501 29.6263 18.6865 29.3691C18.8721 29.1087 19.1309 28.9069 19.4629 28.7637C19.7949 28.6204 20.1758 28.5488 20.6055 28.5488ZM20.6055 29.1445C20.3158 29.1445 20.0586 29.1917 19.834 29.2861C19.6094 29.3805 19.4352 29.5124 19.3115 29.6816C19.1878 29.8509 19.1276 30.043 19.1309 30.2578C19.1276 30.4759 19.1878 30.6696 19.3115 30.8389C19.4352 31.0049 19.6094 31.1335 19.834 31.2246C20.0586 31.3158 20.3158 31.3613 20.6055 31.3613C20.8854 31.3613 21.1361 31.3158 21.3574 31.2246C21.582 31.1335 21.7562 31.0049 21.8799 30.8389C22.0068 30.6696 22.0703 30.4759 22.0703 30.2578C22.0703 30.043 22.0068 29.8509 21.8799 29.6816C21.7562 29.5124 21.582 29.3805 21.3574 29.2861C21.1361 29.1917 20.8854 29.1445 20.6055 29.1445ZM33.3496 30.0723C33.3496 30.6322 33.3431 31.1025 33.3301 31.4834C33.3203 31.8643 33.2894 32.2907 33.2373 32.7627C33.1852 33.2314 33.1022 33.7409 32.9883 34.291L32.2168 34.2227C32.3893 33.4707 32.5016 32.7269 32.5537 31.9912L27.2559 32.2793L27.1484 31.6445L32.583 31.4199C32.5895 31.2376 32.5944 31.057 32.5977 30.8779C32.6009 30.6956 32.6042 30.515 32.6074 30.3359V30.0723V29.6426H27.3828V28.998H33.3496V30.0723ZM34.3359 35.5703H26.4258V34.9258H34.3359V35.5703ZM44.7754 34.5352H44.0039V32.1914H41.7578C41.556 32.4486 41.2988 32.6504 40.9863 32.7969C40.6771 32.9401 40.3385 33.0117 39.9707 33.0117C39.541 33.0117 39.1553 32.9189 38.8135 32.7334C38.4717 32.5479 38.2031 32.2907 38.0078 31.9619C37.8125 31.6331 37.7148 31.2604 37.7148 30.8438C37.7148 30.4271 37.8125 30.0544 38.0078 29.7256C38.2031 29.3936 38.4717 29.1348 38.8135 28.9492C39.1553 28.7637 39.541 28.6693 39.9707 28.666C40.3353 28.6693 40.6706 28.7425 40.9766 28.8857C41.2826 29.0257 41.5381 29.2227 41.7432 29.4766H44.0039V28.1191H44.7754V34.5352ZM45.0195 36.6055H39.1992V33.8613H39.9707V35.9609H45.0195V36.6055ZM39.9707 29.3496C39.6777 29.3529 39.4157 29.4196 39.1846 29.5498C38.9535 29.6768 38.7728 29.8525 38.6426 30.0771C38.5124 30.3018 38.4473 30.5573 38.4473 30.8438C38.4473 31.1302 38.5124 31.3857 38.6426 31.6104C38.7728 31.835 38.9535 32.0107 39.1846 32.1377C39.4157 32.2646 39.6777 32.3281 39.9707 32.3281C40.2507 32.3281 40.5046 32.2646 40.7324 32.1377C40.9635 32.0107 41.1442 31.835 41.2744 31.6104C41.4079 31.3825 41.4746 31.127 41.4746 30.8438C41.4746 30.5605 41.4079 30.3066 41.2744 30.082C41.1442 29.8542 40.9635 29.6768 40.7324 29.5498C40.5046 29.4196 40.2507 29.3529 39.9707 29.3496ZM42.0947 30.1113C42.1761 30.3457 42.2168 30.5898 42.2168 30.8438C42.2168 31.0846 42.1777 31.3223 42.0996 31.5566H44.0039V30.1113H42.0947ZM53.418 32.5527H52.6465V31.6445H50.332V31.0391H52.6465V29.9941H50.4541C50.1872 30.6712 49.7282 31.2425 49.0771 31.708C48.4294 32.1702 47.6172 32.5169 46.6406 32.748L46.3672 32.1133C47.4316 31.8659 48.265 31.4915 48.8672 30.9902C49.4694 30.4857 49.8063 29.8835 49.8779 29.1836H46.8066V28.5488H50.7227C50.7227 28.832 50.695 29.1087 50.6396 29.3789H52.6465V28.1094H53.418V32.5527ZM53.418 35.0625H48.5742V36.0781H53.7109V36.7129H47.8125V34.4766H52.6465V33.5684H47.793V32.9434H53.418V35.0625ZM60.2734 29.5156C60.2734 29.903 60.3646 30.2773 60.5469 30.6387C60.7324 30.9967 60.988 31.3125 61.3135 31.5859C61.6423 31.8594 62.015 32.0677 62.4316 32.2109L62.0117 32.8164C61.5332 32.6406 61.1117 32.3818 60.7471 32.04C60.3825 31.695 60.1042 31.2962 59.9121 30.8438C59.7266 31.3581 59.4466 31.8073 59.0723 32.1914C58.6979 32.5755 58.2585 32.8652 57.7539 33.0605L57.3438 32.4453C57.7734 32.2826 58.151 32.0514 58.4766 31.752C58.8053 31.4525 59.0609 31.1058 59.2432 30.7119C59.4255 30.3148 59.5182 29.8965 59.5215 29.457V28.5586H60.2734V29.5156ZM64.1602 30.375H65.4688V31.0195H64.1602V33.3926H63.3984V28.1094H64.1602V30.375ZM61.377 33.6172C61.9694 33.6172 62.4805 33.679 62.9102 33.8027C63.3398 33.9264 63.6686 34.1071 63.8965 34.3447C64.1243 34.5791 64.2383 34.8607 64.2383 35.1895C64.2383 35.5247 64.1243 35.8112 63.8965 36.0488C63.6686 36.2865 63.3398 36.4655 62.9102 36.5859C62.4837 36.7096 61.9727 36.7715 61.377 36.7715C60.7812 36.7715 60.2669 36.7096 59.834 36.5859C59.4043 36.4622 59.0739 36.2816 58.8428 36.0439C58.6117 35.8096 58.4961 35.5247 58.4961 35.1895C58.4961 34.8607 58.6117 34.5791 58.8428 34.3447C59.0739 34.1071 59.4059 33.9264 59.8389 33.8027C60.2718 33.679 60.7845 33.6172 61.377 33.6172ZM61.377 34.2324C60.944 34.2324 60.568 34.2715 60.249 34.3496C59.93 34.4245 59.6859 34.5352 59.5166 34.6816C59.3473 34.8249 59.2643 34.9941 59.2676 35.1895C59.2643 35.3913 59.3473 35.5654 59.5166 35.7119C59.6859 35.8584 59.9284 35.9691 60.2441 36.0439C60.5632 36.1221 60.9408 36.1628 61.377 36.166C62.041 36.1595 62.5602 36.0716 62.9346 35.9023C63.3089 35.7331 63.4961 35.4954 63.4961 35.1895C63.4961 34.9909 63.4115 34.82 63.2422 34.6768C63.0729 34.5335 62.8288 34.4245 62.5098 34.3496C62.1908 34.2715 61.8132 34.2324 61.377 34.2324ZM69.8047 29.7402H67.0996V31.4102H69.6777V32.0254H67.0996V33.9883C67.793 33.985 68.3594 33.9704 68.7988 33.9443C69.2383 33.915 69.6842 33.8581 70.1367 33.7734L70.2051 34.4082C69.7201 34.5026 69.2399 34.5661 68.7646 34.5986C68.2926 34.6279 67.679 34.6426 66.9238 34.6426H66.3672V29.1152H69.8047V29.7402ZM73.457 36.791H72.7148V32.2402H71.5234V36.3516H70.7812V28.2949H71.5234V31.6055H72.7148V28.1094H73.457V36.791ZM82.5977 32.748H74.6484V32.1426H82.5977V32.748ZM81.6016 35.2871H76.3867V36.1172H81.8848V36.6738H75.6152V34.7598H80.8398V34.0176H75.6055V33.4414H81.6016V35.2871ZM81.5723 30.1699H76.4453V30.9316H81.7285V31.4883H75.6836V29.6426H80.8008V28.9297H75.6543V28.373H81.5723V30.1699ZM92.5879 30.7461H93.8867V31.3906H92.5879V33.9395H91.8164V28.1191H92.5879V30.7461ZM85.7715 33.0508C86.7741 33.0508 87.5586 33.041 88.125 33.0215V32.3916C87.7897 32.3623 87.4967 32.2923 87.2461 32.1816C86.9954 32.0677 86.8018 31.9196 86.665 31.7373C86.5316 31.555 86.4648 31.3451 86.4648 31.1074C86.4648 30.847 86.5479 30.6208 86.7139 30.4287C86.8831 30.2367 87.1208 30.0885 87.4268 29.9844C87.736 29.8802 88.0924 29.8281 88.4961 29.8281C88.903 29.8281 89.2594 29.8802 89.5654 29.9844C89.8747 30.0885 90.1123 30.2367 90.2783 30.4287C90.4476 30.6208 90.5339 30.847 90.5371 31.1074C90.5339 31.4622 90.3841 31.7536 90.0879 31.9814C89.7949 32.2061 89.3945 32.3411 88.8867 32.3867V32.9922C89.8145 32.9466 90.612 32.875 91.2793 32.7773L91.3477 33.334C90.5176 33.4805 89.6631 33.5749 88.7842 33.6172C87.9085 33.6562 86.9336 33.6758 85.8594 33.6758L85.7715 33.0508ZM92.5879 36.791H91.8164V34.9844H86.8359V34.3691H92.5879V36.791ZM91.0156 29.4961H85.9863V28.9102H88.125V28.041H88.8867V28.9102H91.0156V29.4961ZM88.4961 30.375C88.0957 30.3717 87.7783 30.4352 87.5439 30.5654C87.3128 30.6956 87.1973 30.8763 87.1973 31.1074C87.1973 31.2572 87.2493 31.389 87.3535 31.5029C87.4609 31.6169 87.6123 31.7064 87.8076 31.7715C88.0029 31.8333 88.2324 31.8626 88.4961 31.8594C88.7598 31.8626 88.9893 31.8333 89.1846 31.7715C89.3831 31.7064 89.5361 31.6169 89.6436 31.5029C89.751 31.389 89.8047 31.2572 89.8047 31.1074C89.8047 30.8796 89.6859 30.6989 89.4482 30.5654C89.2139 30.432 88.8965 30.3685 88.4961 30.375ZM101.621 34.4668H100.859V28.1191H101.621V34.4668ZM101.895 36.6055H96.0156V33.8223H96.7773V35.9609H101.895V36.6055ZM96.9336 28.7246C97.3633 28.7246 97.7507 28.8158 98.0957 28.998C98.444 29.1771 98.7158 29.4294 98.9111 29.7549C99.1097 30.0771 99.209 30.4434 99.209 30.8535C99.209 31.2702 99.1097 31.6413 98.9111 31.9668C98.7158 32.2891 98.444 32.5413 98.0957 32.7236C97.7507 32.9027 97.3633 32.9922 96.9336 32.9922C96.5039 32.9922 96.1149 32.9027 95.7666 32.7236C95.4215 32.5413 95.1497 32.2891 94.9512 31.9668C94.7559 31.6413 94.6582 31.2702 94.6582 30.8535C94.6582 30.4434 94.7559 30.0771 94.9512 29.7549C95.1497 29.4294 95.4215 29.1771 95.7666 28.998C96.1149 28.8158 96.5039 28.7246 96.9336 28.7246ZM96.9336 29.3984C96.6439 29.3984 96.3818 29.4603 96.1475 29.584C95.9163 29.7077 95.734 29.8802 95.6006 30.1016C95.4704 30.3229 95.4069 30.5736 95.4102 30.8535C95.4069 31.1367 95.4704 31.3906 95.6006 31.6152C95.734 31.8366 95.9163 32.0091 96.1475 32.1328C96.3818 32.2565 96.6439 32.3184 96.9336 32.3184C97.2168 32.3184 97.474 32.2565 97.7051 32.1328C97.9395 32.0091 98.1234 31.8366 98.2568 31.6152C98.3903 31.3906 98.457 31.1367 98.457 30.8535C98.457 30.5768 98.3903 30.3278 98.2568 30.1064C98.1234 29.8851 97.9395 29.7126 97.7051 29.5889C97.474 29.4619 97.2168 29.3984 96.9336 29.3984ZM107.432 30.2383H103.076V29.6133H104.883V28.373H105.645V29.6133H107.432V30.2383ZM105.254 30.8242C105.615 30.8242 105.938 30.9089 106.221 31.0781C106.507 31.2441 106.73 31.4769 106.89 31.7764C107.052 32.0758 107.135 32.416 107.139 32.7969C107.135 33.181 107.052 33.5244 106.89 33.8271C106.73 34.1266 106.507 34.3626 106.221 34.5352C105.938 34.7044 105.615 34.7891 105.254 34.7891C104.896 34.7891 104.575 34.7044 104.292 34.5352C104.009 34.3626 103.787 34.125 103.628 33.8223C103.468 33.5195 103.389 33.1777 103.389 32.7969C103.389 32.4193 103.468 32.0807 103.628 31.7812C103.787 31.4785 104.009 31.2441 104.292 31.0781C104.575 30.9089 104.896 30.8242 105.254 30.8242ZM105.254 31.4688C105.029 31.472 104.826 31.5322 104.644 31.6494C104.465 31.7633 104.325 31.9212 104.224 32.123C104.123 32.3216 104.072 32.5462 104.072 32.7969C104.072 33.0508 104.123 33.2786 104.224 33.4805C104.328 33.6823 104.469 33.8402 104.648 33.9541C104.827 34.0648 105.029 34.1185 105.254 34.1152C105.482 34.1185 105.687 34.0648 105.869 33.9541C106.051 33.8402 106.195 33.6823 106.299 33.4805C106.403 33.2786 106.455 33.0508 106.455 32.7969C106.455 32.5462 106.403 32.3216 106.299 32.123C106.195 31.9212 106.051 31.7633 105.869 31.6494C105.687 31.5322 105.482 31.472 105.254 31.4688ZM110.488 36.791H109.756V32.4062H108.604V36.3613H107.881V28.3242H108.604V31.7715H109.756V28.1094H110.488V36.791ZM116.123 29.3398C116.12 29.7109 116.265 30.0658 116.558 30.4043C116.851 30.7396 117.233 31.0228 117.705 31.2539C118.177 31.485 118.669 31.638 119.18 31.7129L118.896 32.3184C118.438 32.2402 117.995 32.11 117.568 31.9277C117.145 31.7454 116.769 31.5176 116.44 31.2441C116.112 30.9674 115.863 30.6598 115.693 30.3213C115.524 30.6598 115.275 30.9658 114.946 31.2393C114.618 31.5127 114.242 31.7422 113.818 31.9277C113.398 32.11 112.962 32.2402 112.51 32.3184L112.207 31.7129C112.715 31.638 113.205 31.485 113.677 31.2539C114.149 31.0228 114.531 30.7396 114.824 30.4043C115.117 30.0658 115.264 29.7109 115.264 29.3398V29.2812H112.48V28.6562H118.896V29.2812H116.123V29.3398ZM119.648 33.6953H116.055V36.791H115.303V33.6953H111.738V33.0605H119.648V33.6953ZM122.959 30.5801C122.959 31.0423 123.032 31.5046 123.179 31.9668C123.325 32.429 123.535 32.8506 123.809 33.2314C124.085 33.6123 124.411 33.9134 124.785 34.1348L124.346 34.7305C123.939 34.4831 123.586 34.1429 123.286 33.71C122.99 33.2738 122.762 32.7839 122.603 32.2402C122.44 32.8262 122.201 33.3535 121.885 33.8223C121.569 34.291 121.198 34.6556 120.771 34.916L120.283 34.3398C120.674 34.112 121.016 33.8011 121.309 33.4072C121.602 33.0101 121.826 32.569 121.982 32.084C122.139 31.5957 122.217 31.1042 122.217 30.6094V28.9297H122.959V30.5801ZM127.822 36.791H127.08V28.1094H127.822V36.791ZM126.025 36.3516H125.303V31.8789H123.828V31.2246H125.303V28.2949H126.025V36.3516ZM136.973 35.6777H129.023V35.0332H130.996V32.6895C130.618 32.4941 130.326 32.2435 130.117 31.9375C129.909 31.6283 129.805 31.2799 129.805 30.8926C129.805 30.4499 129.94 30.0609 130.21 29.7256C130.48 29.387 130.854 29.125 131.333 28.9395C131.815 28.7539 132.363 28.6595 132.979 28.6562C133.594 28.6595 134.141 28.7539 134.619 28.9395C135.101 29.125 135.477 29.387 135.747 29.7256C136.017 30.0609 136.152 30.4499 136.152 30.8926C136.152 31.2734 136.051 31.6169 135.85 31.9229C135.648 32.2256 135.365 32.4746 135 32.6699V35.0332H136.973V35.6777ZM132.979 29.291C132.507 29.2878 132.087 29.3529 131.719 29.4863C131.351 29.6198 131.063 29.8086 130.854 30.0527C130.649 30.2936 130.547 30.5736 130.547 30.8926C130.547 31.2116 130.649 31.4948 130.854 31.7422C131.063 31.9863 131.351 32.1768 131.719 32.3135C132.087 32.4469 132.507 32.5137 132.979 32.5137C133.447 32.5137 133.866 32.4453 134.233 32.3086C134.601 32.1719 134.889 31.9814 135.098 31.7373C135.306 31.4932 135.41 31.2116 135.41 30.8926C135.41 30.5736 135.306 30.2936 135.098 30.0527C134.889 29.8086 134.601 29.6198 134.233 29.4863C133.866 29.3529 133.447 29.2878 132.979 29.291ZM134.229 35.0332V32.9678C133.841 33.0687 133.424 33.1191 132.979 33.1191C132.529 33.1191 132.119 33.0703 131.748 32.9727V35.0332H134.229ZM138.584 36.0586C138.47 36.0586 138.364 36.0309 138.267 35.9756C138.172 35.917 138.096 35.8389 138.037 35.7412C137.982 35.6436 137.956 35.5378 137.959 35.4238C137.956 35.3132 137.982 35.2106 138.037 35.1162C138.096 35.0186 138.172 34.9421 138.267 34.8867C138.364 34.8281 138.47 34.7988 138.584 34.7988C138.695 34.7988 138.797 34.8281 138.892 34.8867C138.989 34.9421 139.066 35.0186 139.121 35.1162C139.18 35.2106 139.209 35.3132 139.209 35.4238C139.209 35.5378 139.18 35.6436 139.121 35.7412C139.066 35.8389 138.989 35.917 138.892 35.9756C138.797 36.0309 138.695 36.0586 138.584 36.0586Z" fill="black"/>
<defs>
<clipPath id="clip0_10842_4435">
<rect width="20" height="20" fill="white" transform="translate(60)"/>
</clipPath>
</defs>
</svg>
