<svg width="12" height="13" viewBox="0 0 12 13" fill="none" xmlns="http://www.w3.org/2000/svg">
<path d="M6.67558 2.08763C6.67558 2.45846 6.37496 2.75907 6.00413 2.75907C5.6333 2.75907 5.33269 2.45846 5.33269 2.08763C5.33269 1.7168 5.6333 1.41618 6.00413 1.41618C6.37496 1.41618 6.67558 1.7168 6.67558 2.08763Z" stroke="#565656" stroke-width="0.99936" stroke-linecap="round" stroke-linejoin="round"/>
<path d="M6.67558 6.42894C6.67558 6.79977 6.37496 7.10038 6.00413 7.10038C5.6333 7.10038 5.33269 6.79977 5.33269 6.42894C5.33269 6.05811 5.6333 5.75749 6.00413 5.75749C6.37496 5.75749 6.67558 6.05811 6.67558 6.42894Z" stroke="#565656" stroke-width="0.99936" stroke-linecap="round" stroke-linejoin="round"/>
<path d="M6.67558 10.7698C6.67558 11.1406 6.37496 11.4412 6.00413 11.4412C5.6333 11.4412 5.33269 11.1406 5.33269 10.7698C5.33269 10.3989 5.6333 10.0983 6.00413 10.0983C6.37496 10.0983 6.67558 10.3989 6.67558 10.7698Z" stroke="#565656" stroke-width="0.99936" stroke-linecap="round" stroke-linejoin="round"/>
</svg>
